<?xml version="1.0" encoding="iso-8859-1"?>
<!-- Generator: Adobe Illustrator 19.0.0, SVG Export Plug-In . SVG Version: 6.00 Build 0)  -->
<svg version="1.1" id="Capa_1" xmlns="http://www.w3.org/2000/svg" xmlns:xlink="http://www.w3.org/1999/xlink" x="0px" y="0px"
	 viewBox="0 0 512 512" style="enable-background:new 0 0 512 512;" xml:space="preserve">
<polygon style="fill:#1064AB;" points="273.067,112.949 273.067,152.373 238.933,152.373 238.933,114.997 254.976,131.04 "/>
<path style="fill:#E00022;" d="M273.067,112.949l-18.091,18.091l-16.043-16.043l-43.691-43.691
	c-13.952-14.319-13.653-37.248,0.666-51.2c14.063-13.696,36.471-13.696,50.534,0l8.533,8.533l8.533-8.533
	c14.319-13.952,37.248-13.653,51.2,0.666c13.696,14.063,13.696,36.471,0,50.534L273.067,112.949z"/>
<polygon style="fill:#FFE21F;" points="486.4,468.107 460.8,502.24 51.2,502.24 25.6,468.107 59.733,468.107 452.267,468.107 "/>
<path style="fill:#0C67B4;" d="M469.333,314.507v38.4c0,11.785-9.549,21.333-21.333,21.333s-21.333-9.549-21.333-21.333
	c0,11.785-9.549,21.333-21.333,21.333c-11.785,0-21.333-9.549-21.333-21.333c0,11.785-9.549,21.333-21.333,21.333
	s-21.333-9.549-21.333-21.333c0,11.785-9.549,21.333-21.333,21.333c-11.785,0-21.333-9.549-21.333-21.333
	c0,11.785-9.549,21.333-21.333,21.333S256,364.691,256,352.907c0,11.785-9.549,21.333-21.333,21.333
	c-11.785,0-21.333-9.549-21.333-21.333c0,11.785-9.549,21.333-21.333,21.333c-11.785,0-21.333-9.549-21.333-21.333
	c0,11.785-9.549,21.333-21.333,21.333c-11.785,0-21.333-9.549-21.333-21.333c0,11.785-9.549,21.333-21.333,21.333
	s-21.333-9.549-21.333-21.333c0,11.785-9.549,21.333-21.333,21.333c-1.434-0.009-2.859-0.154-4.267-0.427
	c-9.95-1.997-17.101-10.752-17.067-20.907v-38.4c0-4.71,3.823-8.533,8.533-8.533h409.6
	C465.51,305.973,469.333,309.796,469.333,314.507z"/>
<path style="fill:#0F8BDE;" d="M64,374.24c11.785,0,21.333-9.549,21.333-21.333c0,11.785,9.549,21.333,21.333,21.333
	S128,364.691,128,352.907c0,11.785,9.549,21.333,21.333,21.333c11.785,0,21.333-9.549,21.333-21.333
	c0,11.785,9.549,21.333,21.333,21.333c11.785,0,21.333-9.549,21.333-21.333c0,11.785,9.549,21.333,21.333,21.333
	c11.785,0,21.333-9.549,21.333-21.333c0,11.785,9.549,21.333,21.333,21.333s21.333-9.549,21.333-21.333
	c0,11.785,9.549,21.333,21.333,21.333c11.785,0,21.333-9.549,21.333-21.333c0,11.785,9.549,21.333,21.333,21.333
	S384,364.691,384,352.907c0,11.785,9.549,21.333,21.333,21.333c11.785,0,21.333-9.549,21.333-21.333
	c-0.034,11.742,9.455,21.299,21.197,21.333c0.043,0,0.094,0,0.137,0h4.267v93.867H59.733v-94.293
	C61.141,374.086,62.566,374.231,64,374.24z"/>
<path style="fill:#7DD3EA;" d="M426.667,160.907v38.4c0,11.785-9.549,21.333-21.333,21.333c-11.785,0-21.333-9.549-21.333-21.333
	c0,11.785-9.549,21.333-21.333,21.333s-21.333-9.549-21.333-21.333c0,11.785-9.549,21.333-21.333,21.333
	c-11.785,0-21.333-9.549-21.333-21.333c0,11.785-9.549,21.333-21.333,21.333S256,211.091,256,199.307
	c0,11.785-9.549,21.333-21.333,21.333c-11.785,0-21.333-9.549-21.333-21.333c0,11.785-9.549,21.333-21.333,21.333
	c-11.785,0-21.333-9.549-21.333-21.333c0,11.785-9.549,21.333-21.333,21.333c-11.785,0-21.333-9.549-21.333-21.333
	c0,11.785-9.549,21.333-21.333,21.333c-1.434-0.009-2.859-0.154-4.267-0.427c-9.95-1.997-17.101-10.752-17.067-20.907v-38.4
	c0-4.71,3.823-8.533,8.533-8.533h324.267C422.844,152.373,426.667,156.196,426.667,160.907z"/>
<path style="fill:#C7E1FA;" d="M106.667,220.64c11.785,0,21.333-9.549,21.333-21.333c0,11.785,9.549,21.333,21.333,21.333
	c11.785,0,21.333-9.549,21.333-21.333c0,11.785,9.549,21.333,21.333,21.333c11.785,0,21.333-9.549,21.333-21.333
	c0,11.785,9.549,21.333,21.333,21.333c11.785,0,21.333-9.549,21.333-21.333c0,11.785,9.549,21.333,21.333,21.333
	s21.333-9.549,21.333-21.333c0,11.785,9.549,21.333,21.333,21.333c11.785,0,21.333-9.549,21.333-21.333
	c0,11.785,9.549,21.333,21.333,21.333S384,211.091,384,199.307c-0.034,11.742,9.455,21.299,21.197,21.333c0.043,0,0.094,0,0.137,0
	h4.267v85.333H102.4v-85.76C103.808,220.486,105.233,220.631,106.667,220.64z"/>
<path style="fill:#E6A100;" d="M512,459.573H0v17.067h21.333l23.04,30.72c1.613,2.15,4.139,3.413,6.827,3.413h409.6
	c2.688,0,5.214-1.263,6.827-3.413l23.04-30.72H512V459.573z M456.533,493.707H55.467l-12.8-17.067h426.667L456.533,493.707z"/>
<path d="M44.373,507.36c1.613,2.15,4.139,3.413,6.827,3.413h409.6c2.688,0,5.214-1.263,6.827-3.413l23.04-30.72H512v-17.067h-51.2
	v-79.795c10.385-4.924,17.024-15.377,17.067-26.871v-38.4c0-9.429-7.637-17.067-17.067-17.067h-42.667v-71.262
	c10.385-4.924,17.024-15.377,17.067-26.871v-38.4c0-9.429-7.637-17.067-17.067-17.067H384v-42.667h-17.067v42.667H281.6v-27.307
	l39.177-39.168c17.34-17.604,17.118-45.935-0.486-63.275c-17.417-17.152-45.363-17.152-62.78,0l-2.5,2.5l-2.5-2.5
	c-17.604-17.331-45.935-17.118-63.266,0.495c-17.143,17.417-17.143,45.363,0,62.78l41.156,41.131v25.344h-85.333v-42.667H128v42.667
	H93.867c-9.429,0-17.067,7.637-17.067,17.067v38.4c0.043,11.494,6.682,21.948,17.067,26.871v71.262H51.2
	c-9.429,0-17.067,7.637-17.067,17.067v38.4c0.043,11.494,6.682,21.948,17.067,26.871v79.795H0v17.067h21.333L44.373,507.36z
	 M201.31,65.265c-10.803-10.803-10.803-28.322,0-39.134c10.803-10.803,28.322-10.803,39.134,0.009l8.533,8.533
	c3.328,3.328,8.738,3.328,12.066,0l8.533-8.533c5.171-5.205,12.22-8.124,19.558-8.107l0,0c15.283,0.009,27.665,12.399,27.665,27.682
	c0,7.33-2.918,14.362-8.098,19.55l-53.7,53.7L201.31,65.265z M264.533,133.6v10.24h-17.067v-8.277l1.51,1.51
	c3.328,3.328,8.738,3.328,12.066,0L264.533,133.6z M93.867,160.907h324.267v38.4c0,7.066-5.734,12.8-12.8,12.8
	c-7.066,0-12.8-5.734-12.8-12.8h-17.067c0,7.066-5.734,12.8-12.8,12.8s-12.8-5.734-12.8-12.8H332.8c0,7.066-5.734,12.8-12.8,12.8
	c-7.066,0-12.8-5.734-12.8-12.8h-17.067c0,7.066-5.734,12.8-12.8,12.8s-12.8-5.734-12.8-12.8h-17.067c0,7.066-5.734,12.8-12.8,12.8
	c-7.066,0-12.8-5.734-12.8-12.8H204.8c0,7.066-5.734,12.8-12.8,12.8c-7.066,0-12.8-5.734-12.8-12.8h-17.067
	c0,7.066-5.734,12.8-12.8,12.8s-12.8-5.734-12.8-12.8h-17.067c0,7.066-5.734,12.8-12.8,12.8c-7.066,0-12.8-5.734-12.8-12.8V160.907z
	 M401.067,228.738v68.702H110.933v-68.702c6.477-0.905,12.476-3.925,17.067-8.593c11.426,11.785,30.242,12.066,42.027,0.64
	c0.213-0.213,0.427-0.427,0.64-0.64c11.426,11.785,30.242,12.066,42.027,0.64c0.213-0.213,0.427-0.427,0.64-0.64
	c11.426,11.785,30.242,12.066,42.027,0.64c0.213-0.213,0.427-0.427,0.64-0.64c11.426,11.785,30.242,12.066,42.027,0.64
	c0.213-0.213,0.427-0.427,0.64-0.64c11.426,11.785,30.242,12.066,42.027,0.64c0.213-0.213,0.427-0.427,0.64-0.64
	c11.426,11.785,30.242,12.066,42.027,0.64c0.213-0.213,0.427-0.427,0.64-0.64C388.591,224.813,394.59,227.834,401.067,228.738z
	 M51.2,314.507h409.6v38.4c0,7.066-5.734,12.8-12.8,12.8c-7.066,0-12.8-5.734-12.8-12.8h-17.067c0,7.066-5.734,12.8-12.8,12.8
	c-7.066,0-12.8-5.734-12.8-12.8h-17.067c0,7.066-5.734,12.8-12.8,12.8s-12.8-5.734-12.8-12.8H332.8c0,7.066-5.734,12.8-12.8,12.8
	c-7.066,0-12.8-5.734-12.8-12.8h-17.067c0,7.066-5.734,12.8-12.8,12.8s-12.8-5.734-12.8-12.8h-17.067c0,7.066-5.734,12.8-12.8,12.8
	c-7.066,0-12.8-5.734-12.8-12.8H204.8c0,7.066-5.734,12.8-12.8,12.8c-7.066,0-12.8-5.734-12.8-12.8h-17.067
	c0,7.066-5.734,12.8-12.8,12.8s-12.8-5.734-12.8-12.8h-17.067c0,7.066-5.734,12.8-12.8,12.8c-7.066,0-12.8-5.734-12.8-12.8H76.8
	c0,7.066-5.734,12.8-12.8,12.8c-7.066,0-12.8-5.734-12.8-12.8V314.507z M443.733,382.338v77.235H68.267v-77.235
	c6.477-0.905,12.476-3.925,17.067-8.593c11.426,11.785,30.242,12.066,42.027,0.64c0.213-0.213,0.427-0.427,0.64-0.64
	c11.426,11.785,30.242,12.066,42.027,0.64c0.213-0.213,0.427-0.427,0.64-0.64c11.426,11.785,30.242,12.066,42.027,0.64
	c0.213-0.213,0.427-0.427,0.64-0.64c11.426,11.785,30.242,12.066,42.027,0.64c0.213-0.213,0.427-0.427,0.64-0.64
	c11.426,11.785,30.242,12.066,42.027,0.64c0.213-0.213,0.427-0.427,0.64-0.64c11.426,11.785,30.242,12.066,42.027,0.64
	c0.213-0.213,0.427-0.427,0.64-0.64c11.426,11.785,30.242,12.066,42.027,0.64c0.213-0.213,0.427-0.427,0.64-0.64
	c11.426,11.785,30.242,12.066,42.027,0.64c0.213-0.213,0.427-0.427,0.64-0.64C431.258,378.413,437.257,381.434,443.733,382.338z
	 M59.733,476.64h409.6l-12.8,17.067H55.467l-12.8-17.067H59.733z"/>
<polygon points="364.433,98.673 375.467,87.639 386.5,98.673 398.566,86.607 387.533,75.573 398.566,64.54 386.5,52.474 
	375.467,63.507 364.433,52.474 352.367,64.54 363.401,75.573 352.367,86.607 "/>
<polygon points="125.5,98.673 136.533,87.639 147.567,98.673 159.633,86.607 148.599,75.573 159.633,64.54 147.567,52.474 
	136.533,63.507 125.5,52.474 113.434,64.54 124.467,75.573 113.434,86.607 "/>
<g>
</g>
<g>
</g>
<g>
</g>
<g>
</g>
<g>
</g>
<g>
</g>
<g>
</g>
<g>
</g>
<g>
</g>
<g>
</g>
<g>
</g>
<g>
</g>
<g>
</g>
<g>
</g>
<g>
</g>
</svg>
