<svg height="480pt" viewBox="-87 0 479 480" width="480pt" xmlns="http://www.w3.org/2000/svg"><path d="m80.507812 472-19.3125-19.3125c-3-3-4.6875-7.070312-4.6875-11.3125v-73.488281c0-4.417969-3.582031-8-8-8-4.417968 0-8 3.582031-8 8v73.488281c-.003906 4.242188-1.6875 8.3125-4.6875 11.3125l-19.3125 19.3125zm0 0" fill="#dbdbdb"/><path d="m48.507812 352c-4.417968 0-8 3.582031-8 8v22.847656c1.777344.433594 3.589844.734375 5.414063.894532.871094-.054688 1.742187.03125 2.585937.257812 2.6875.019531 5.367188-.25 8-.800781v-23.199219c0-4.417969-3.582031-8-8-8zm0 0" fill="#cbcbcb"/><path d="m272.507812 472h-128c-13.257812 0-24-10.746094-24-24v-130.472656c-.003906-29.6875 8.785157-58.707032 25.253907-83.40625 14.890625-22.339844 23.527343-48.257813 25.015625-75.066406l5.730468-103.054688h64l5.726563 103.054688c1.488281 26.808593 10.128906 52.726562 25.015625 75.066406 16.472656 24.699218 25.257812 53.71875 25.257812 83.40625v130.472656c0 13.253906-10.746093 24-24 24zm0 0" fill="#85bc94"/><path d="m152.507812 376h112v64h-112zm0 0" fill="#dbdbdb"/><path d="m153.402344 221.144531 55.105468 42.855469 55.101563-42.855469c-10.214844-19.195312-16.144531-40.378906-17.375-62.089843l-5.726563-103.054688v-8h-64v8l-5.730468 103.054688c-1.230469 21.710937-7.15625 42.894531-17.375 62.089843zm0 0" fill="#fbb540"/><path d="m193.195312 343.230469-15.871093-22.398438-27.410157 1.640625 27.679688-57.703125 43.28125 20.757813zm0 0" fill="#dbdbdb"/><path d="m221.226562 343.230469 15.871094-22.398438 27.410156 1.640625-27.679687-57.703125-43.28125 20.757813zm0 0" fill="#eaeae8"/><path d="m48.507812 367.886719c-22.554687 0-33.289062-17.390625-34.953124-39.886719l-3.449219-88-1.597657-40h80l-1.601562 40-3.472656 88c-1.640625 22.496094-12.375 39.886719-34.925782 39.886719zm0 0" fill="#ebebeb"/><path d="m83.457031 328 3.449219-87.585938-.289062-.414062h-76.214844l-.3125.273438 3.464844 87.726562c1.601562 21.601562 11.65625 38.289062 32.367187 39.632812.871094-.058593 1.742187.03125 2.585937.253907 22.550782 0 33.285157-17.390625 34.949219-39.886719zm0 0" fill="#fbb540"/><g fill="#fbcd80"><path d="m32.507812 264h16v16h-16zm0 0"/><path d="m48.507812 296h16v16h-16zm0 0"/><path d="m40.507812 328h16v16h-16zm0 0"/></g><path d="m244.507812 256c0 19.882812-16.121093 36-36 36-19.882812 0-36-16.117188-36-36s16.117188-36 36-36c19.878907 0 36 16.117188 36 36zm0 0" fill="#a24a46"/><path d="m241.84375 80-1.335938-32h-64l-1.335937 32zm0 0" fill="#f7b23f"/><path d="m184.507812 8h48c8.835938 0 16 7.164062 16 16v16c0 8.835938-7.164062 16-16 16h-48c-8.839843 0-16-7.164062-16-16v-16c0-8.835938 7.160157-16 16-16zm0 0" fill="#eaa93c"/><path d="m277.90625 229.679688c-2.640625-4-5-8.078126-7.199219-12.265626-4.644531-8.769531-8.371093-17.996093-11.113281-27.535156-.152344-.550781-.335938-1.09375-.488281-1.648437-1.191407-4.320313-2.136719-8.703125-2.910157-13.125-.160156-.945313-.304687-1.898438-.449218-2.847657-.6875-4.503906-1.238282-9.035156-1.496094-13.601562l-5.597656-100.9375c5.003906-4.527344 7.859375-10.964844 7.855468-17.71875v-16c0-13.253906-10.746093-24-24-24h-48c-13.257812 0-24 10.746094-24 24v16c.015626 6.742188 2.882813 13.160156 7.894532 17.671875l-5.601563 100.9375c-.246093 4.574219-.796875 9.101563-1.488281 13.597656-.148438.953125-.285156 1.90625-.445312 2.855469-.800782 4.417969-1.730469 8.800781-2.914063 13.121094-.152344.550781-.335937 1.097656-.488281 1.648437-2.742188 9.539063-6.464844 18.765625-11.109375 27.535157-2.226563 4.183593-4.585938 8.304687-7.199219 12.265624-17.398438 26.011719-26.671875 56.601563-26.648438 87.894532v130.472656c0 17.671875 14.324219 32 32 32h128c17.671876 0 32-14.328125 32-32v-130.472656c.027344-31.269532-9.230468-61.84375-26.601562-87.847656zm-101.398438-205.679688c0-4.417969 3.582032-8 8-8h48c4.417969 0 8 3.582031 8 8v16c0 4.417969-3.582031 8-8 8h-48c-4.417968 0-8-3.582031-8-8zm-7.386718 181.535156c.21875-.582031.441406-1.160156.648437-1.742187 1.601563-4.488281 3.039063-9.023438 4.234375-13.640625.101563-.417969.175782-.800782.277344-1.257813 1-4 1.808594-8 2.488281-12.117187.199219-1.226563.402344-2.449219.578125-3.679688.648438-4.503906 1.167969-9.035156 1.421875-13.601562l5.304688-95.496094h48.863281l5.304688 95.503906c.257812 4.558594.800781 9.089844 1.425781 13.601563.175781 1.222656.367187 2.445312.574219 3.664062.679687 4.078125 1.496093 8.125 2.488281 12.132813.105469.417968.175781.800781.28125 1.25 1.191406 4.617187 2.640625 9.152344 4.230469 13.640625.207031.582031.433593 1.160156.648437 1.734375 1.671875 4.527344 3.503906 9 5.601563 13.359375l-11.328126 8.800781c-8.339843-9.953125-20.65625-15.699219-33.640624-15.699219-12.984376 0-25.300782 5.746094-33.640626 15.699219l-11.328124-8.800781c2.0625-4.359375 3.894531-8.824219 5.566406-13.351563zm11.386718 50.464844c0-15.464844 12.535157-28 28-28 15.460938 0 28 12.535156 28 28s-12.539062 28-28 28c-15.464843 0-28-12.535156-28-28zm17.832032 58.007812-6.480469 13.503907-8-11.304688c-1.585937-2.273437-4.246094-3.546875-7.007813-3.359375l-13.832031.800782 13.320313-27.761719c3.75 4.035156 8.226562 7.332031 13.191406 9.722656zm40.605468-26.3125 12.464844 25.976563-13.832031-.800781c-2.765625-.199219-5.429687 1.078125-7.007813 3.359375l-8 11.304687-13.265624-27.574218c11.078124-.199219 21.664062-4.578126 29.640624-12.265626zm49.5625 160.304688c0 8.835938-7.164062 16-16 16h-128c-8.839843 0-16-7.164062-16-16v-130.472656c-.027343-28.109375 8.292969-55.59375 23.910157-78.96875 1.183593-1.773438 2.257812-3.613282 3.359375-5.429688l11.128906 8.65625c-3.078125 8.882813-3.199219 18.523438-.34375 27.480469l-23.863281 49.742187c-1.226563 2.558594-1.007813 5.574219.574219 7.929688 1.554687 2.382812 4.28125 3.734375 7.121093 3.519531l22.96875-1.378906 13.304688 18.777344c1.5 2.117187 3.933593 3.375 6.527343 3.375.222657.011719.445313.011719.671876 0 2.824218-.238281 5.308593-1.953125 6.535156-4.511719l6.808594-14.175781 6.800781 14.175781c1.226562 2.558594 3.714843 4.277344 6.542969 4.511719.222656.011719.449218.011719.671874 0 2.59375 0 5.027344-1.257813 6.527344-3.375l13.304688-18.777344 22.96875 1.378906c2.839844.222657 5.574218-1.128906 7.117187-3.519531 1.585938-2.355469 1.804688-5.371094.578125-7.929688l-22.398437-46.679687c3.953125-9.75 4.238281-20.601563.796875-30.542969l11.128906-8.65625c1.105469 1.816406 2.175781 3.65625 3.359375 5.429688 15.609375 23.375 23.929687 50.859375 23.898437 78.96875zm0 0"/><path d="m264.507812 368h-112c-4.417968 0-8 3.582031-8 8v64c0 4.417969 3.582032 8 8 8h112c4.417969 0 8-3.582031 8-8v-64c0-4.417969-3.582031-8-8-8zm-8 64h-96v-48h96zm0 0"/><path d="m88.507812 192h-80c-2.179687 0-4.265624.886719-5.773437 2.457031-1.511719 1.566407-2.316406 3.6875-2.226563 5.863281l5.0625 128.273438c1.945313 26.261719 14.824219 43.078125 34.929688 46.558594v61.535156l-29.65625 29.65625c-2.289062 2.289062-2.972656 5.730469-1.734375 8.722656 1.242187 2.988282 4.160156 4.9375 7.398437 4.933594h64c3.234376 0 6.148438-1.949219 7.386719-4.9375s.554688-6.429688-1.730469-8.71875l-29.65625-29.65625v-61.535156c20.101563-3.488282 32.984376-20.328125 34.941407-46.832032l5.050781-128c.085938-2.175781-.71875-4.292968-2.226562-5.863281-1.507813-1.570312-3.589844-2.457031-5.765626-2.457031zm-27.3125 272h-25.375l12.6875-12.6875zm14.285157-136.59375c-1.09375 14.816406-6.660157 32.480469-26.972657 32.480469s-25.882812-17.664063-26.960937-32.207031l-3.144531-79.679688h60.207031zm3.761719-95.40625h-61.472657l-.941406-24h63.359375zm0 0"/><path d="m32.507812 264h16v16h-16zm0 0"/><path d="m48.507812 296h16v16h-16zm0 0"/><path d="m40.507812 328h16v16h-16zm0 0"/></svg>