<svg height="479pt" viewBox="-3 0 479 479.63782" width="479pt" xmlns="http://www.w3.org/2000/svg"><path d="m120.324219 471.636719-112-280h232zm0 0" fill="#fd412d"/><path d="m75.523438 359.636719h92.800781l24-56h-139.199219zm0 0" fill="#faa108"/><path d="m75.523438 359.636719 22.402343 56h46.398438l24-56zm0 0" fill="#70dda8"/><path d="m192.324219 303.636719 24-56h-185.597657l22.398438 56zm0 0" fill="#70dda8"/><path d="m380.203125 464.214844c-2.121094 0-4.152344-.84375-5.652344-2.34375-40.613281-40.613282-40.613281-106.460938 0-147.074219 32.1875-31.933594 34.691407-83.148437 5.773438-118.070313-2.808594-3.410156-2.320313-8.453124 1.089843-11.265624 3.410157-2.808594 8.453126-2.320313 11.261719 1.089843 34.191407 41.269531 31.238281 101.8125-6.808593 139.558594-34.363282 34.367187-34.363282 90.082031 0 124.449219 2.289062 2.289062 2.972656 5.726562 1.734374 8.714844-1.238281 2.992187-4.152343 4.941406-7.386718 4.941406zm0 0" fill="#301993"/><path d="m472.324219 111.636719c0 53.019531-42.980469 96-96 96s-96-42.980469-96-96 42.980469-96 96-96 96 42.980469 96 96zm0 0" fill="#70dda8"/><path d="m440.324219 119.636719c-4.417969 0-8-3.582031-8-8-.035157-30.914063-25.085938-55.964844-56-56-4.417969 0-8-3.582031-8-8s3.582031-8 8-8c39.746093.046875 71.957031 32.253906 72 72 0 4.417969-3.582031 8-8 8zm0 0" fill="#301993"/><path d="m128.324219 7.636719 14.832031 30.058593 33.167969 4.816407-24 23.398437 5.664062 33.03125-29.664062-15.597656-29.664063 15.597656 5.664063-33.03125-24-23.398437 33.167969-4.816407zm0 0" fill="#faa108"/><path d="m293.203125 265.101562 11.121094 22.535157 24.878906 3.617187-18 17.542969 4.25 24.777344-22.25-11.695313-22.253906 11.695313 4.253906-24.777344-18-17.542969 24.875-3.617187zm0 0" fill="#faa108"/><g fill="#301993"><path d="m247.675781 194.789062c1.0625-2.472656.808594-5.308593-.671875-7.554687-1.480468-2.246094-3.988281-3.597656-6.679687-3.597656h-72c-4.417969 0-8 3.582031-8 8s3.582031 8 8 8h59.863281l-17.132812 40h-66.730469c-4.417969 0-8 3.582031-8 8s3.582031 8 8 8h59.863281l-17.132812 40h-26.730469c-4.417969 0-8 3.582031-8 8s3.582031 8 8 8h19.863281l-41.132812 96h-35.707032l-16-40h40.976563c4.417969 0 8-3.582031 8-8s-3.582031-8-8-8h-47.382813l-16-40h31.382813c4.417969 0 8-3.582031 8-8s-3.582031-8-8-8h-37.78125l-11.328125-28.3125-4.671875-11.6875h45.78125c4.417969 0 8-3.582031 8-8s-3.582031-8-8-8h-52.183594l-16-40h60.183594c4.417969 0 8-3.582031 8-8s-3.582031-8-8-8h-72c-2.65625 0-5.140625 1.316406-6.628907 3.515625-1.488281 2.199218-1.789062 4.996094-.800781 7.460937l56 140 11.199219 28 2.800781 7 42 105c1.203125 3.003907 4.097657 4.988281 7.335938 5.023438h.09375c3.199219 0 6.09375-1.90625 7.351562-4.847657zm-127.09375 255.945313-10.839843-27.097656h22.445312zm0 0"/><path d="m95.734375 68.703125-4.960937 28.886719c-.523438 3.003906.710937 6.042968 3.175781 7.835937 2.464843 1.796875 5.734375 2.03125 8.433593.613281l25.941407-13.65625 25.945312 13.65625c2.695313 1.414063 5.960938 1.179688 8.425781-.609374 2.460938-1.789063 3.695313-4.824219 3.183594-7.824219l-4.960937-28.886719 21.007812-20.472656c2.179688-2.125 2.96875-5.304688 2.027344-8.203125-.941406-2.894531-3.445313-5.007813-6.460937-5.445313l-29.007813-4.214844-12.960937-26.28125c-1.496094-2.542968-4.226563-4.101562-7.175782-4.101562-2.949218 0-5.679687 1.558594-7.175781 4.101562l-12.992187 26.28125-29.007813 4.214844c-3.015625.433594-5.523437 2.542969-6.46875 5.441406-.945313 2.898438-.160156 6.078126 2.023437 8.207032zm18.910156-23.089844c2.609375-.378906 4.859375-2.019531 6.023438-4.382812l7.65625-15.511719 7.65625 15.519531c1.164062 2.363281 3.417969 4.003907 6.023437 4.382813l17.128906 2.488281-12.40625 12.074219c-1.886718 1.835937-2.75 4.484375-2.304687 7.078125l2.925781 17.054687-15.320312-8.054687c-2.328125-1.214844-5.109375-1.214844-7.4375 0l-15.304688 8.054687 2.929688-17.054687c.441406-2.59375-.417969-5.242188-2.304688-7.078125l-12.394531-12.082032zm0 0"/><path d="m185.683594 161.855469c.890625 3.558593 4.085937 6.058593 7.753906 6.0625.65625 0 1.308594-.078125 1.945312-.230469 4.289063-1.070312 6.894532-5.417969 5.820313-9.707031-11.753906-47.15625 16.941406-94.914063 64.097656-106.671875 2.832031-.636719 5.097657-2.757813 5.917969-5.539063.820312-2.785156.070312-5.796875-1.964844-7.867187-2.03125-2.070313-5.027344-2.878906-7.824218-2.113282-55.726563 13.898438-89.636719 70.335938-75.746094 126.066407zm0 0"/><path d="m32.734375 114.171875 16 48c1.398437 4.199219 5.933594 6.46875 10.128906 5.070313 4.199219-1.398438 6.46875-5.933594 5.070313-10.132813l-16-48c-1.398438-4.195313-5.933594-6.464844-10.132813-5.066406-4.195312 1.398437-6.464843 5.933593-5.066406 10.128906zm0 0"/><path d="m64.324219 71.636719c0 4.417969-3.582031 8-8 8s-8-3.582031-8-8 3.582031-8 8-8 8 3.582031 8 8zm0 0"/><path d="m16.324219 71.636719c0 4.417969-3.582031 8-8 8s-8-3.582031-8-8 3.582031-8 8-8 8 3.582031 8 8zm0 0"/><path d="m40.324219 39.636719c0 4.417969-3.582031 8-8 8s-8-3.582031-8-8 3.582031-8 8-8 8 3.582031 8 8zm0 0"/><path d="m120.324219 127.636719v24c0 4.417969 3.582031 8 8 8s8-3.582031 8-8v-24c0-4.417969-3.582031-8-8-8s-8 3.582031-8 8zm0 0"/><path d="m224.324219 23.636719c0 4.417969-3.582031 8-8 8s-8-3.582031-8-8 3.582031-8 8-8 8 3.582031 8 8zm0 0"/><path d="m336.8125 288.78125c-.941406-2.898438-3.445312-5.011719-6.464844-5.449219l-20.710937-3.007812-9.261719-18.765625c-1.5-2.539063-4.226562-4.097656-7.175781-4.097656-2.945313 0-5.671875 1.558593-7.171875 4.097656l-9.261719 18.765625-20.710937 3.007812c-3.015626.4375-5.523438 2.546875-6.464844 5.445313-.945313 2.898437-.160156 6.078125 2.023437 8.203125l14.992188 14.609375-3.542969 20.632812c-.519531 3.003906.71875 6.039063 3.183594 7.828125 2.464844 1.792969 5.734375 2.023438 8.429687.601563l18.519531-9.734375 18.53125 9.734375c2.695313 1.421875 5.964844 1.191406 8.429688-.601563 2.464844-1.789062 3.703125-4.824219 3.183594-7.828125l-3.542969-20.632812 14.992187-14.609375c2.179688-2.125 2.964844-5.304688 2.023438-8.199219zm-31.199219 14.289062c-1.882812 1.839844-2.742187 4.484376-2.296875 7.078126l1.511719 8.800781-7.902344-4.152344c-2.332031-1.226563-5.117187-1.226563-7.449219 0l-7.902343 4.152344 1.511719-8.800781c.445312-2.59375-.414063-5.238282-2.296876-7.078126l-6.398437-6.234374 8.796875-1.277344c2.605469-.378906 4.859375-2.015625 6.027344-4.375l3.949218-8 3.960938 8c1.164062 2.359375 3.417969 3.996094 6.023438 4.375l8.800781 1.277344zm0 0"/><path d="m281.925781 362.835938-48 64c-2.652343 3.535156-1.933593 8.550781 1.597657 11.203124 3.535156 2.648438 8.550781 1.933594 11.203124-1.601562l48-64c2.648438-3.535156 1.933594-8.546875-1.601562-11.199219-3.535156-2.652343-8.550781-1.933593-11.199219 1.597657zm0 0"/><path d="m243.574219 328.332031c-4.035157-1.789062-8.757813.027344-10.554688 4.058594l-32 72c-1.25 2.625-.976562 5.722656.714844 8.089844 1.691406 2.363281 4.53125 3.628906 7.421875 3.296875 2.886719-.332032 5.371094-2.203125 6.480469-4.890625l32-72c1.789062-4.035157-.03125-8.757813-4.0625-10.554688zm0 0"/></g></svg>