<svg height="512pt" viewBox="-35 0 512 512.00006" width="512pt" xmlns="http://www.w3.org/2000/svg"><path d="m302.4375 233.519531h-16.578125l-15.921875 33.933594c-3.445312 7.339844.386719 16.027344 8.128906 18.433594 10.472656 3.257812 21.691406 3.257812 32.164063 0 7.742187-2.40625 11.570312-11.09375 8.128906-18.433594zm0 0" fill="#fde77c"/><path d="m243.144531 188.539062-45.417969-21.585937c-15.605468-7.421875-18.894531-28.195313-6.34375-40.074219l36.519532-34.566406c3.785156-3.582031 6.21875-8.359375 6.894531-13.53125l6.5-49.863281c2.230469-17.132813 20.972656-26.683594 36.148437-18.417969l44.160157 24.050781c4.578125 2.492188 9.875 3.332031 15 2.375l49.429687-9.230469c16.988282-3.167968 31.863282 11.703126 28.691406 28.691407l-9.230468 49.433593c-.957032 5.121094-.117188 10.417969 2.375 14.996094l24.054687 44.160156c8.261719 15.175782-1.285156 33.917969-18.421875 36.152344l-49.863281 6.496094c-5.167969.671875-9.945313 3.109375-13.53125 6.894531l-34.566406 36.523438c-11.878907 12.546875-32.652344 9.257812-40.070313-6.347657l-21.589844-45.417968c-2.238281-4.707032-6.03125-8.5-10.738281-10.738282zm0 0" fill="#fde77c"/><path d="m253.882812 199.277344 21.589844 45.414062c7.417969 15.605469 28.195313 18.898438 40.070313 6.347656l34.566406-36.523437c1.90625-2.007813 4.152344-3.625 6.609375-4.8125-74.964844-42.796875-96.875-146.828125-92.9375-202.136719-11.023438.878906-20.902344 9.203125-22.484375 21.351563l-6.5 49.863281c-.671875 5.167969-3.105469 9.945312-6.890625 13.527344l-36.523438 34.566406c-12.550781 11.878906-9.261718 32.65625 6.347657 40.074219l45.414062 21.589843c4.707031 2.238282 8.5 6.03125 10.738281 10.738282zm0 0" fill="#fab25f"/><path d="m386.035156 27.695312-49.433594 9.230469c-3.683593.6875-7.453124.433594-10.980468-.683593-34.878906 25.15625-71.4375 46.453124-104.371094 62.367187l-29.867188 28.269531c-8.34375 7.894532-9.679687 19.71875-5.054687 28.941406 57.042969-21.394531 140.351563-64.730468 209.777344-127.917968-3.175781-.734375-6.578125-.855469-10.070313-.207032zm0 0" fill="#91d1e0"/><path d="m407.871094 120.816406c-2.492188-4.578125-3.332032-9.875-2.375-15l3.195312-17.117187c-49.558594 44.074219-109.214844 80.6875-159.363281 104.179687 1.863281 1.839844 3.414063 3.996094 4.554687 6.398438l13.296876 27.972656c45.777343-21.726562 99.085937-53.296875 147.425781-94.066406zm0 0" fill="#91d1e0"/><path d="m306.265625 162.664062c-19.601563 11.59375-38.886719 21.757813-56.9375 30.214844 1.863281 1.839844 3.410156 3.996094 4.550781 6.398438l13.300782 27.972656c20.554687-9.753906 42.625-21.5 65.085937-35.167969-9.859375-8.757812-18.492187-18.703125-26-29.417969zm0 0" fill="#56b9d1"/><path d="m269.046875 73.035156c-16.363281 9.582032-32.472656 18.167969-47.800781 25.574219l-29.863282 28.269531c-8.34375 7.894532-9.679687 19.71875-5.058593 28.941406 26.796875-10.050781 59.390625-24.945312 93.617187-44.460937-4.683594-12.796875-8.273437-25.738281-10.894531-38.324219zm0 0" fill="#56b9d1"/><path d="m125.351562 272.03125h-16.578124l-15.921876 33.933594c-3.441406 7.339844.386719 16.027344 8.128907 18.433594 10.472656 3.261718 21.691406 3.261718 32.164062 0 7.742188-2.40625 11.570313-11.09375 8.128907-18.433594zm0 0" fill="#e889c2"/><path d="m226.625 156.660156c0-60.507812-49.054688-109.5625-109.5625-109.5625-60.511719 0-109.5625 49.054688-109.5625 109.5625 0 60.507813 49.054688 138.058594 109.5625 138.058594s109.5625-77.550781 109.5625-138.058594zm0 0" fill="#e889c2"/><path d="m77.855469 54.332031c-41.144531 15.773438-70.355469 55.636719-70.355469 102.328125 0 60.507813 49.054688 138.058594 109.5625 138.058594 21.054688 0 40.722656-9.394531 57.417969-24.191406-113.402344-20.945313-125.050781-158.308594-96.625-216.195313zm0 0" fill="#db5ac6"/><path d="m74.386719 173.65625c0-10.976562-11.171875-19.871094-24.957031-19.871094-13.78125 0-24.953126 8.894532-24.953126 19.871094s11.171876 19.871094 24.953126 19.871094c13.785156 0 24.957031-8.894532 24.957031-19.871094zm0 0" fill="#fff"/><path d="m209.648438 173.65625c0-10.976562-11.171876-19.871094-24.953126-19.871094-13.785156 0-24.957031 8.894532-24.957031 19.871094s11.171875 19.871094 24.957031 19.871094c13.78125 0 24.953126-8.894532 24.953126-19.871094zm0 0" fill="#fff"/><path d="m438.511719 161.386719-24.054688-44.160157c-1.664062-3.050781-2.226562-6.617187-1.589843-10.03125l6.984374-37.410156c.761719-4.070312-1.921874-7.988281-5.996093-8.75-4.074219-.757812-7.988281 1.925782-8.75 5.996094l-6.984375 37.410156c-1.269532 6.796875-.144532 13.886719 3.164062 19.960938l24.050782 44.160156c2.738281 5.027344 2.820312 10.835938.21875 15.933594-2.597657 5.101562-7.34375 8.453125-13.019532 9.191406l-49.867187 6.496094c-6.855469.894531-13.253907 4.152344-18.003907 9.175781l-34.570312 36.523437c-.765625.8125-1.597656 1.53125-2.472656 2.167969-.011719.003907-.023438.011719-.03125.019531-3.609375 2.597657-8.042969 3.664063-12.582032 2.945313-4.234374-.671875-7.910156-2.792969-10.519531-5.988281-.058593-.085938-.125-.164063-.1875-.246094-.792969-1.007812-1.488281-2.109375-2.058593-3.308594l-21.585938-45.417968c-2.96875-6.246094-8.042969-11.320313-14.292969-14.289063l-13.601562-6.46875c.894531-6.316406 1.363281-12.558594 1.363281-18.640625 0-17.679688-3.949219-34.457031-10.996094-49.5l9.933594-9.402344c5.019531-4.753906 8.28125-11.148437 9.171875-18.003906l6.5-49.867188c.738281-5.675781 4.089844-10.421874 9.1875-13.019531 5.101563-2.601562 10.910156-2.519531 15.9375.21875l44.160156 24.050781c6.074219 3.308594 13.160157 4.429688 19.960938 3.164063l49.433593-9.230469c5.886719-1.097656 11.804688.902344 15.828126 5.351563 2.777343 3.074219 7.519531 3.3125 10.59375.535156 3.070312-2.777344 3.308593-7.519531.53125-10.59375-7.546876-8.347656-18.652344-12.101563-29.707032-10.039063l-49.433594 9.230469c-3.417968.636719-6.980468.074219-10.03125-1.589843l-44.164062-24.050782c-9.296875-5.0625-20.484375-5.21875-29.917969-.410156-9.4375 4.808594-15.886719 13.945312-17.253906 24.445312l-6.5 49.867188c-.449219 3.445312-2.085937 6.660156-4.609375 9.050781l-7.109375 6.726563c-20.832031-32.449219-57.238281-53.992188-98.578125-53.992188-64.546875 0-117.0625 52.515625-117.0625 117.0625 0 36.042969 15.984375 76.800782 41.710938 106.371094 2.722656 3.125 7.457031 3.457031 10.582031.738281 3.125-2.722656 3.453125-7.457031.734375-10.582031-23.101563-26.550781-38.027344-64.441406-38.027344-96.527344 0-56.277344 45.785156-102.0625 102.0625-102.0625 56.273438 0 102.058594 45.785156 102.058594 102.0625 0 6.859375-.664063 13.953125-1.933594 21.132813-.089844.355469-.152344.710937-.1875 1.070312-4.140625 22.398438-14.160156 45.570313-28.507812 65.074219-16.078126 21.851562-35.117188 36.015625-54.878907 41.136719-.292969.050781-.585937.121093-.875.210937-5.191406 1.277344-10.429687 1.933594-15.675781 1.933594-5.332031 0-10.652344-.679688-15.949219-2.011719-.097656-.027343-.195312-.050781-.292969-.074219-7.5625-1.9375-15.058593-5.214843-22.421874-9.832031-3.507813-2.199219-8.140626-1.136719-10.339844 2.375-2.199219 3.507813-1.136719 8.136719 2.371094 10.335938 6.011718 3.765625 12.125 6.777343 18.3125 9.054687l-2.683594 5.714844c-2.5625 5.460938-2.632813 11.757812-.203125 17.277344 2.4375 5.519531 7.132812 9.710937 12.894531 11.503906 3.257812 1.015625 6.566406 1.742188 9.898438 2.203125-1.613282 25.835937-5.621094 46.519531-14.882813 77.949219-13.824219 46.902344-1.527344 82.257812 34.621094 99.550781 1.042969.5 2.144531.734375 3.230469.734375 2.800781 0 5.484374-1.574219 6.773437-4.265625 1.785156-3.738281.207031-8.214844-3.53125-10.003906-14.429687-6.902344-24.039063-17.179688-28.5625-30.554688-4.695313-13.875-4.070313-31.109375 1.855469-51.222656 9.707031-32.9375 13.859375-54.574219 15.511718-81.957031 3.941407-.429688 7.859376-1.238282 11.707032-2.433594 5.761718-1.792969 10.457031-5.984375 12.890625-11.503906 2.4375-5.519532 2.363281-11.816406-.203125-17.277344l-2.664063-5.679688c20.144531-7.347656 39.125-22.453124 55.179688-44.277343 13.753906-18.695313 23.878906-40.5625 29.230469-62.320313l10.117187 4.808594c3.140625 1.492188 5.691406 4.042969 7.183594 7.183594l21.589843 45.417968c.34375.726563.726563 1.433594 1.125 2.128907l-6.675781 14.222656c-2.5625 5.460937-2.636719 11.757813-.203125 17.277344s7.132813 9.714843 12.894532 11.503906c3.164062.984375 6.375 1.699219 9.609374 2.164063-1.746093 24.148437-5.410156 47.5-10.3125 74.511718-9.46875 52.136719 4.804688 88.855469 41.273438 106.183594 1.039062.496094 2.136719.726562 3.214844.726562 2.804687 0 5.496094-1.578124 6.78125-4.28125 1.777344-3.742187.183594-8.214843-3.558594-9.992187-30.105469-14.308594-41.195312-44.574219-32.953125-89.957031 5.042969-27.789063 8.800781-51.816406 10.574219-76.898438 4.039062-.417968 8.050781-1.230468 11.988281-2.457031 5.761719-1.789063 10.460937-5.984375 12.894531-11.503906s2.359375-11.816407-.203125-17.277344l-3.910156-8.332031 34.320313-36.261719c2.386718-2.523437 5.601562-4.160156 9.050781-4.609375l49.863281-6.5c10.503906-1.367188 19.640625-7.816406 24.449219-17.253906 4.808593-9.433594 4.65625-20.621094-.40625-29.921875zm-303.972657 152.621093c-.402343.910157-1.40625 2.542969-3.621093 3.230469-9.0625 2.820313-18.648438 2.820313-27.710938 0-2.214843-.6875-3.21875-2.320312-3.621093-3.230469-.402344-.910156-.929688-2.753906.054687-4.855468l3.8125-8.121094c4.511719.78125 9.050781 1.1875 13.609375 1.1875 4.5625 0 9.105469-.402344 13.613281-1.179688l3.808594 8.113282c.984375 2.101562.457031 3.941406.054687 4.855468zm177.085938-38.515624c-.402344.910156-1.40625 2.542968-3.621094 3.230468-9.066406 2.820313-18.648437 2.820313-27.710937 0-2.214844-.6875-3.21875-2.316406-3.621094-3.230468-.402344-.910157-.929687-2.753907.054687-4.851563l4.273438-9.105469c3.523438 2.148438 7.46875 3.632813 11.660156 4.296875 1.679688.265625 3.359375.398438 5.027344.398438 3.746094 0 7.4375-.664063 10.910156-1.921875l2.972656 6.332031c.984376 2.097656.457032 3.941406.054688 4.851563zm-243.273438-123.460938c0 4.144531 3.359376 7.5 7.5 7.5 4.140626 0 7.5-3.355469 7.5-7.5 0-10.683594-8.691406-19.378906-19.378906-19.378906-10.683594 0-19.378906 8.695312-19.378906 19.378906 0 4.144531 3.359375 7.5 7.503906 7.5 4.140625 0 7.5-3.355469 7.5-7.5 0-2.414062 1.960938-4.378906 4.375-4.378906 2.414063.003906 4.378906 1.964844 4.378906 4.378906zm97.421876 0c0-2.414062 1.964843-4.378906 4.378906-4.378906 2.410156 0 4.375 1.964844 4.375 4.378906 0 4.144531 3.359375 7.5 7.5 7.5 4.144531 0 7.5-3.355469 7.5-7.5 0-10.683594-8.691406-19.378906-19.375-19.378906-10.6875 0-19.378906 8.695312-19.378906 19.378906 0 4.144531 3.355468 7.5 7.5 7.5 4.140624 0 7.5-3.355469 7.5-7.5zm-48.710938 27.125c6.996094 0 13.648438-3.03125 18.253906-8.3125 2.722656-3.125 2.394532-7.863281-.726562-10.582031-3.125-2.722657-7.859375-2.398438-10.582032.726562-1.753906 2.011719-4.285156 3.164063-6.945312 3.164063s-5.191406-1.152344-6.945312-3.164063c-2.722657-3.125-7.460938-3.449219-10.582032-.726562-3.125 2.71875-3.449218 7.457031-.726562 10.582031 4.605468 5.28125 11.257812 8.3125 18.253906 8.3125zm0 0"/></svg>