<svg height="512pt" viewBox="0 0 512 512" width="512pt" xmlns="http://www.w3.org/2000/svg"><path d="m121 292.5 60-30v-30l-60-30zm0 0" fill="#ffe8d1"/><path d="m151 292.5h-60v-60l60-30zm0 0" fill="#fff5cc"/><path d="m161 172.5h-30l20 60h30v-40c0-11.046875-8.957031-20-20-20zm0 0" fill="#ef4e22"/><path d="m131 172.5h-20c-11.046875 0-20 8.953125-20 20v40h60v-40c0-11.046875-8.957031-20-20-20zm0 0" fill="#f37324"/><path d="m181 262.5h-30l-20 45 20 45h30zm0 0" fill="#68d5fd"/><path d="m151 262.5h-60c-9.328125 10.574219-15 24.453125-15 39.664062v50.335938h75zm0 0" fill="#a4e6fe"/><path d="m468.664062 86.726562c4.347657 0 8.234376 1.960938 10.835938 5.039063 2.597656-3.078125 6.484375-5.039063 10.832031-5.039063 7.824219 0 14.164063 6.332032 14.164063 14.148438 0 18.308594-24.996094 31.625-24.996094 31.625s-25-13.316406-25-31.625c0-7.816406 6.339844-14.148438 14.164062-14.148438zm0 0" fill="#ff443e"/><path d="m43.332031 86.726562c-4.347656 0-8.234375 1.960938-10.832031 5.039063-2.597656-3.078125-6.484375-5.039063-10.832031-5.039063-7.824219 0-14.167969 6.332032-14.167969 14.148438 0 18.308594 25 31.625 25 31.625s25-13.316406 25-31.625c0-7.816406-6.34375-14.148438-14.167969-14.148438zm0 0" fill="#ff443e"/><path d="m421 262.5v-70c0-11.050781-8.953125-20-20-20h-30l-.152344 150 30 30h30l4.8125-43.902344c.21875-2.117187.339844-4.257812.339844-6.429687 0-15.21875-5.671875-29.089844-15-39.667969zm0 0" fill="#7b68ab"/><path d="m391 262.5v-70c0-11.050781-8.953125-20-20-20h-20c-11.050781 0-20 8.949219-20 20v160h69.847656l4.8125-43.902344c.21875-2.117187.339844-4.257812.339844-6.429687 0-15.21875-5.671875-29.089844-15-39.667969zm0 0" fill="#9682c9"/><path d="m271 172.5v30l15 20 15-20v-30zm0 0" fill="#fff5cc"/><path d="m271 202.5v20c0 8.28125 6.714844 15 15 15 8.28125 0 15-6.71875 15-15 0-8.285156 0-20 0-20zm0 0" fill="#ffe682"/><path d="m211 172.5v30l15 20 15-20v-30zm0 0" fill="#fff5cc"/><path d="m211 202.5v20c0 8.28125 6.714844 15 15 15 8.28125 0 15-6.71875 15-15 0-8.285156 0-20 0-20zm0 0" fill="#ffe682"/><path d="m150.089844 82.535156-14.09375 60.453125c24.851562 0 45-20.148437 45-45zm0 0" fill="#ffe8d1"/><path d="m150.996094 97.988281c0-5.429687-.320313-10.632812-.90625-15.453125l-41.097656-20.546875c-10.925782 8.210938-17.996094 21.28125-17.996094 36 0 24.851563 20.148437 45 45 45 8.285156 0 15-20.148437 15-45zm0 0" fill="#fff5cc"/><path d="m135.996094 52.988281 14.898437 39.832031c9.414063 3.339844 19.542969 5.167969 30.101563 5.167969 0-24.851562-20.148438-45-45-45zm0 0" fill="#f7983d"/><path d="m135.996094 52.988281c-10.132813 0-19.480469 3.351563-27.003906 9.003907 10.535156 14.019531 25.066406 24.855468 41.902343 30.828124-.855469-22.417968-7.195312-39.832031-14.898437-39.832031zm0 0" fill="#fbbd57"/><path d="m410.25 68.335938c.011719-.011719-34.253906-.007813-34.253906-.007813v74.171875c24.847656 0 45-20.152344 45-45 0-11.121094-4.046875-21.316406-10.746094-29.164062zm0 0" fill="#974d34"/><path d="m389.886719 80.507812-48.144531-12.171874c-6.703126 7.847656-10.746094 18.042968-10.746094 29.164062 0 24.847656 20.148437 45 45 45 8.28125 0 15-20.152344 15-45 0-6.011719-.390625-11.75-1.109375-16.992188zm0 0" fill="#b25b3d"/><path d="m375.996094 52.5 13.890625 28.007812c7.449219-2.226562 14.472656-6.292968 20.363281-12.171874-8.25-9.691407-20.535156-15.835938-34.253906-15.835938zm0 0" fill="#2d170f"/><path d="m375.996094 52.5c-13.71875 0-26.003906 6.144531-34.253906 15.835938 13.039062 13.039062 31.644531 17.105468 48.144531 12.171874-2.230469-16.429687-7.609375-28.007812-13.890625-28.007812zm0 0" fill="#482518"/><path d="m391.789062 17.5c-2.8125-5.90625-8.816406-10-15.792968-10-6.976563 0-12.980469 4.09375-15.792969 10-9.664063 0-17.5 7.835938-17.5 17.5s7.835937 17.5 17.5 17.5h31.585937c9.664063 0 17.5-7.835938 17.5-17.5s-7.835937-17.5-17.5-17.5zm0 0" fill="#482518"/><path d="m198.371094 497.382812-24.871094-8.289062v-129.09375h7.5c4.140625 0 7.5-3.359375 7.5-7.5v-160c0-15.164062-12.335938-27.5-27.5-27.5h-50c-12.5625 0-23.179688 8.472656-26.453125 20h-57.046875c-4.136719 0-7.5-3.363281-7.5-7.5s3.363281-7.5 7.5-7.5h15.261719c4.140625 0 7.5-3.359375 7.5-7.5 0-4.144531-3.359375-7.5-7.5-7.5h-15.261719c-12.40625 0-22.5 10.09375-22.5 22.5s10.09375 22.5 22.5 22.5h56v59.757812c-9.691406 11.988282-15 26.933594-15 42.40625v50.335938c0 4.140625 3.359375 7.5 7.5 7.5h22.5v134.5c0 3.226562 2.066406 6.09375 5.128906 7.113281l30 10c.785156.261719 1.585938.386719 2.371094.386719 3.140625 0 6.066406-1.988281 7.113281-5.128906 1.3125-3.929688-.8125-8.179688-4.742187-9.488282l-24.871094-8.289062v-129.09375h45v134.5c0 3.226562 2.0625 6.09375 5.125 7.113281l30 10c.789062.261719 1.585938.386719 2.375.386719 3.140625 0 6.066406-1.988281 7.113281-5.128906 1.3125-3.929688-.8125-8.179688-4.742187-9.488282zm-99.871094-257.382812h75v15h-75zm12.5-60h50c6.890625 0 12.5 5.605469 12.5 12.5v32.5h-75v-32.5c0-6.894531 5.605469-12.5 12.5-12.5zm-27.5 122.164062c0-11.6875 3.90625-22.980468 11.039062-32.164062h78.960938v75h-90zm0 0"/><path d="m484.5 155h-15.261719c-4.140625 0-7.5 3.355469-7.5 7.5 0 4.140625 3.359375 7.5 7.5 7.5h15.261719c4.132812 0 7.5 3.363281 7.5 7.5s-3.367188 7.5-7.5 7.5h-57.050781c-3.273438-11.527344-13.886719-20-26.449219-20h-50c-15.164062 0-27.5 12.335938-27.5 27.5v160c0 4.140625 3.355469 7.5 7.5 7.5h7.5v129.09375l-24.875 8.289062c-3.929688 1.308594-6.050781 5.558594-4.742188 9.488282 1.046876 3.140625 3.972657 5.128906 7.113282 5.128906.785156 0 1.585937-.125 2.375-.386719l30-10c3.0625-1.019531 5.125-3.886719 5.125-7.113281v-134.5h45v129.09375l-24.871094 8.289062c-3.929688 1.308594-6.050781 5.558594-4.742188 9.488282 1.046876 3.140625 3.972657 5.128906 7.113282 5.128906.785156 0 1.585937-.125 2.371094-.386719l30-10c3.0625-1.019531 5.128906-3.886719 5.128906-7.113281v-134.5h17.351562c3.828125 0 7.039063-2.882812 7.457032-6.683594l4.808593-43.925781c.253907-2.386719.382813-4.816406.382813-7.226563 0-15.472656-5.304688-30.417968-15-42.40625v-59.757812h56c12.40625 0 22.5-10.09375 22.5-22.5s-10.089844-22.5-22.496094-22.5zm-56.296875 152.777344-4.074219 37.222656h-85.628906v-152.5c0-6.894531 5.605469-12.5 12.5-12.5h50c6.890625 0 12.5 5.605469 12.5 12.5v70c0 1.824219.664062 3.589844 1.875 4.960938 8.460938 9.59375 13.125 21.917968 13.125 34.703124 0 1.878907-.101562 3.777344-.296875 5.613282zm0 0"/><path d="m475.972656 139.121094c1.101563.585937 2.3125.878906 3.527344.878906 1.210938 0 2.421875-.292969 3.523438-.878906 2.964843-1.582032 28.972656-16.074219 28.972656-38.246094 0-11.9375-9.71875-21.648438-21.664063-21.648438-3.855469 0-7.578125 1.019532-10.832031 2.898438-3.257812-1.878906-6.980469-2.898438-10.835938-2.898438-11.945312 0-21.664062 9.710938-21.664062 21.648438 0 22.171875 26.007812 36.664062 28.972656 38.246094zm-7.308594-44.894532c1.96875 0 3.828126.863282 5.101563 2.375 1.425781 1.6875 3.523437 2.664063 5.730469 2.664063 2.210937 0 4.308594-.976563 5.734375-2.664063 1.273437-1.511718 3.132812-2.375 5.101562-2.375 3.675781 0 6.664063 2.980469 6.664063 6.648438 0 9.390625-10.59375 18.351562-17.496094 22.878906-6.765625-4.464844-17.503906-13.519531-17.503906-22.878906.003906-3.667969 2.992187-6.648438 6.667968-6.648438zm0 0"/><path d="m28.972656 139.121094c1.101563.585937 2.316406.878906 3.527344.878906s2.425781-.292969 3.527344-.878906c2.964844-1.582032 28.972656-16.074219 28.972656-38.246094 0-11.9375-9.71875-21.648438-21.667969-21.648438-3.851562 0-7.578125 1.019532-10.832031 2.898438-3.253906-1.878906-6.980469-2.898438-10.832031-2.898438-11.949219 0-21.667969 9.710938-21.667969 21.648438 0 22.171875 26.007812 36.664062 28.972656 38.246094zm-7.308594-44.894532c1.96875 0 3.828126.863282 5.101563 2.375 1.425781 1.6875 3.523437 2.664063 5.734375 2.664063 2.207031 0 4.304688-.976563 5.730469-2.664063 1.273437-1.511718 3.132812-2.375 5.101562-2.375 3.675781 0 6.667969 2.980469 6.667969 6.648438 0 9.390625-10.597656 18.351562-17.5 22.878906-6.765625-4.464844-17.5-13.519531-17.5-22.878906 0-3.667969 2.992188-6.648438 6.664062-6.648438zm0 0"/><path d="m301 275h-7.5v-31.289062c8.726562-3.097657 15-11.433594 15-21.210938v-50c0-4.144531-3.359375-7.5-7.5-7.5h-30c-4.144531 0-7.5 3.355469-7.5 7.5v50c0 9.777344 6.269531 18.113281 15 21.210938v31.289062h-7.5c-4.144531 0-7.5 3.355469-7.5 7.5 0 4.140625 3.355469 7.5 7.5 7.5h30c4.140625 0 7.5-3.359375 7.5-7.5 0-4.144531-3.359375-7.5-7.5-7.5zm-22.5-95h15v42.5c0 4.136719-3.363281 7.5-7.5 7.5s-7.5-3.363281-7.5-7.5zm0 0"/><path d="m241 165h-30c-4.144531 0-7.5 3.355469-7.5 7.5v50c0 9.777344 6.269531 18.113281 15 21.210938v31.289062h-7.5c-4.144531 0-7.5 3.355469-7.5 7.5 0 4.140625 3.355469 7.5 7.5 7.5h30c4.140625 0 7.5-3.359375 7.5-7.5 0-4.144531-3.359375-7.5-7.5-7.5h-7.5v-31.289062c8.726562-3.097657 15-11.433594 15-21.210938v-50c0-4.144531-3.359375-7.5-7.5-7.5zm-7.5 57.5c0 4.136719-3.363281 7.5-7.5 7.5s-7.5-3.363281-7.5-7.5v-42.5h15zm0 0"/><path d="m135.996094 150.488281c28.949218 0 52.5-23.550781 52.5-52.5s-23.550782-52.5-52.5-52.5c-28.949219 0-52.5 23.550781-52.5 52.5s23.550781 52.5 52.5 52.5zm36.652344-60.417969c-20.15625-2-38.582032-11.214843-52.296876-26.148437 4.765626-2.199219 10.0625-3.433594 15.644532-3.433594 17.960937 0 33.007812 12.695313 36.652344 29.582031zm-64.453126-17.21875c16.691407 18.800782 39.578126 30.242188 64.609376 32.296876-3.351563 17.261718-18.578126 30.339843-36.808594 30.339843-20.675782 0-37.5-16.820312-37.5-37.5 0-9.664062 3.675781-18.484375 9.699218-25.136719zm0 0"/><path d="m323.496094 97.5c0 28.949219 23.550781 52.5 52.5 52.5 28.949218 0 52.5-23.550781 52.5-52.5 0-17.460938-8.574219-32.945312-21.726563-42.496094 6.078125-4.566406 10.019531-11.832031 10.019531-20.003906 0-12.257812-8.867187-22.484375-20.527343-24.597656-4.648438-6.429688-12.199219-10.402344-20.265625-10.402344s-15.617188 3.972656-20.265625 10.402344c-11.660157 2.113281-20.527344 12.339844-20.527344 24.597656 0 8.171875 3.941406 15.4375 10.019531 20.003906-13.152344 9.550782-21.726562 25.035156-21.726562 42.496094zm52.5 37.5c-20.675782 0-37.5-16.824219-37.5-37.5 0-6.566406 1.703125-12.742188 4.679687-18.117188 9.75 7.074219 21.285157 10.617188 32.820313 10.617188s23.070312-3.542969 32.820312-10.617188c2.976563 5.375 4.679688 11.550782 4.679688 18.117188 0 20.675781-16.824219 37.5-37.5 37.5zm-23.023438-67.070312c6.359375-4.960938 14.351563-7.929688 23.023438-7.929688 8.675781 0 16.664062 2.96875 23.023437 7.929688-13.839843 9.421874-32.207031 9.421874-46.046875 0zm7.230469-22.929688c-5.515625 0-10-4.484375-10-10s4.484375-10 10-10c2.894531 0 5.527344-1.664062 6.769531-4.277344 1.683594-3.53125 5.140625-5.722656 9.023438-5.722656 3.882812 0 7.339844 2.191406 9.019531 5.722656 1.242187 2.613282 3.878906 4.277344 6.773437 4.277344 5.511719 0 10 4.484375 10 10s-4.488281 10-10 10zm0 0"/></svg>