<svg height="512pt" viewBox="0 -148 512.00079 512" width="512pt" xmlns="http://www.w3.org/2000/svg"><path d="m503.597656 36.464844c5.214844-18.164063-12.753906-34.335938-30.292968-27.296875-27.636719 11.097656-60.082032 28.996093-81.605469 50.359375-2.316407 2.300781-5.480469 3.539062-8.738281 3.34375l-26.335938-1.601563c-16.527344-1.003906-33.109375.617188-49.132812 4.800781l-39.230469 10.242188c-8.039063 2.097656-16.484375 2.097656-24.519531 0l-39.230469-10.242188c-16.023438-4.183593-32.605469-5.804687-49.136719-4.800781l-26.332031 1.601563c-3.257813.195312-6.421875-1.042969-8.738281-3.34375-21.523438-21.363282-53.96875-39.261719-81.609376-50.359375-17.539062-7.039063-35.507812 9.132812-30.289062 27.296875 7.453125 25.957031 18.378906 57.441406 25.378906 73.558594l16.511719 38.753906c-6.511719-1.914063-13.148437-3.285156-19.4375-4.183594-11.632813-1.65625-19.503906 11.65625-12.265625 20.914062 17.476562 22.363282 44.5625 43.980469 98.15625 43.980469h51.800781c22.082031 0 42.464844-11.855469 53.378907-31.050781l19.160156-33.691406c6.578125-11.5625 23.246094-11.5625 29.820312 0l19.160156 33.691406c10.917969 19.195312 31.300782 31.050781 53.382813 31.050781h51.800781c53.589844 0 80.679688-21.617187 98.15625-43.980469 7.238282-9.257812-.632812-22.570312-12.269531-20.914062-6.285156.898438-12.921875 2.269531-19.433594 4.183594l16.511719-38.753906c7-16.117188 17.925781-47.601563 25.378906-73.558594zm-359.351562 130.113281c-28.941406 0-52.40625-15.601563-52.40625-34.847656 0-19.246094 23.464844-34.847657 52.40625-34.847657s52.402344 15.601563 52.402344 34.847657c0 19.246093-23.460938 34.847656-52.402344 34.847656zm223.511718 0c-28.941406 0-52.40625-15.601563-52.40625-34.847656 0-19.246094 23.464844-34.847657 52.40625-34.847657 28.941407 0 52.402344 15.601563 52.402344 34.847657 0 19.246093-23.460937 34.847656-52.402344 34.847656zm0 0" fill="#91d1e0"/><path d="m168.550781 209.488281c22.082031 0 42.464844-11.855469 53.378907-31.050781l2.589843-4.550781c-12.449219-10.242188-22.777343-20.066407-31.257812-29.824219-7.492188 13.15625-26.605469 22.515625-49.015625 22.515625-28.941406 0-52.40625-15.601563-52.40625-34.847656 0-19.246094 23.464844-34.847657 52.40625-34.847657 8.175781 0 15.917968 1.25 22.8125 3.46875-4.265625-12.238281-6.492188-25.136718-7.105469-39.28125-1.527344.046876-3.050781.109376-4.578125.203126l-26.332031 1.597656c-3.257813.199218-6.421875-1.042969-8.738281-3.339844-21.523438-21.367188-53.96875-39.261719-81.609376-50.359375-17.539062-7.042969-35.507812 9.128906-30.289062 27.292969 7.453125 25.957031 18.378906 57.441406 25.378906 73.558594l16.511719 38.753906c-6.511719-1.910156-13.148437-3.285156-19.4375-4.179688-11.632813-1.660156-19.503906 11.652344-12.265625 20.914063 17.476562 22.359375 44.5625 43.976562 98.15625 43.976562zm0 0" fill="#56b9d1"/><path d="m126 164.402344c-19.945312-4.925782-34.160156-17.695313-34.160156-32.671875 0-5.308594 1.792968-10.339844 4.988281-14.84375-11.875-30.015625-14.441406-61.066407-13.074219-85.199219-14.863281-9.066406-30.667968-16.746094-45.148437-22.554688-17.515625-7.023437-35.410157 9.199219-30.199219 27.335938 7.453125 25.957031 18.378906 57.441406 25.375 73.554688l16.511719 38.753906c-6.519531-1.914063-13.160157-3.289063-19.457031-4.183594-11.617188-1.652344-19.46875 11.671875-12.242188 20.917969 17.476562 22.363281 44.5625 43.976562 98.15625 43.976562h51.800781c6.722657 0 13.28125-1.113281 19.46875-3.183593-26.613281-10.371094-46.816406-25.03125-62.019531-41.902344zm0 0" fill="#5e82c9"/><g fill="#809fdd"><path d="m503.597656 36.46875c5.207032-18.132812-12.6875-34.359375-30.199218-27.335938-14.480469 5.808594-30.285157 13.488282-45.152344 22.554688 1.367187 24.132812-1.199219 55.183594-13.070313 85.199219 3.191407 4.503906 4.984375 9.535156 4.984375 14.84375 0 14.976562-14.210937 27.746093-34.160156 32.671875-15.203125 16.871094-35.402344 31.53125-62.015625 41.902344 6.1875 2.070312 12.746094 3.183593 19.46875 3.183593h51.800781c53.589844 0 80.675782-21.617187 98.15625-43.976562 7.226563-9.246094-.625-22.574219-12.242187-20.921875-6.296875.898437-12.941407 2.273437-19.460938 4.1875l16.511719-38.757813c6.996094-16.109375 17.921875-47.59375 25.378906-73.550781zm0 0"/><path d="m52.503906 51.398438c0 3.953124-3.207031 7.160156-7.160156 7.160156s-7.160156-3.207032-7.160156-7.160156c0-3.953126 3.207031-7.160157 7.160156-7.160157s7.160156 3.207031 7.160156 7.160157zm0 0"/><path d="m104.914062 183.605469c0 3.953125-3.207031 7.160156-7.160156 7.160156s-7.160156-3.207031-7.160156-7.160156 3.207031-7.160157 7.160156-7.160157 7.160156 3.207032 7.160156 7.160157zm0 0"/></g><path d="m221.753906 96.882812c0 3.953126-3.207031 7.160157-7.160156 7.160157s-7.160156-3.207031-7.160156-7.160157c0-3.953124 3.207031-7.160156 7.160156-7.160156s7.160156 3.207032 7.160156 7.160156zm0 0" fill="#56b9d1"/><path d="m315.351562 166.578125c0 3.953125-3.203124 7.160156-7.160156 7.160156-3.953125 0-7.15625-3.207031-7.15625-7.160156 0-3.957031 3.203125-7.160156 7.15625-7.160156 3.957032 0 7.160156 3.203125 7.160156 7.160156zm0 0" fill="#56b9d1"/><path d="m72.132812 96.882812c0 3.953126-3.207031 7.160157-7.160156 7.160157-3.957031 0-7.160156-3.207031-7.160156-7.160157 0-3.953124 3.203125-7.160156 7.160156-7.160156 3.953125 0 7.160156 3.207032 7.160156 7.160156zm0 0" fill="#809fdd"/><path d="m468.292969 77.082031c0 3.957031-3.207031 7.160157-7.160157 7.160157-3.953124 0-7.160156-3.203126-7.160156-7.160157 0-3.953125 3.207032-7.15625 7.160156-7.15625 3.953126 0 7.160157 3.203125 7.160157 7.15625zm0 0" fill="#5e82c9"/><path d="m427.0625 176.445312c0 3.957032-3.207031 7.160157-7.160156 7.160157s-7.160156-3.203125-7.160156-7.160157c0-3.953124 3.207031-7.160156 7.160156-7.160156s7.160156 3.207032 7.160156 7.160156zm0 0" fill="#5e82c9"/><path d="m446.277344 193.023438c-14.453125 5.949218-31.617188 8.964843-51.023438 8.964843h-51.800781c-19.34375 0-37.300781-10.445312-46.863281-27.257812l-19.160156-33.691407c-4.4375-7.804687-12.449219-12.464843-21.429688-12.464843-8.976562 0-16.988281 4.660156-21.429688 12.464843l-19.160156 33.691407c-9.5625 16.8125-27.515625 27.257812-46.859375 27.257812h-51.800781c-53.292969 0-77.292969-21.964843-92.246094-41.097656-2.042968-2.613281-.96875-5.128906-.414062-6.09375.453125-.777344 2.191406-3.285156 5.710937-2.777344 6.351563.90625 12.535157 2.234375 18.378907 3.953125 2.789062.816406 5.792968-.042968 7.71875-2.214844 1.929687-2.167968 2.433593-5.253906 1.296874-7.921874l-16.53125-38.800782c-7.050781-16.234375-17.820312-47.460937-25.050781-72.640625-1.636719-5.699219.011719-11.476562 4.410157-15.445312 4.414062-3.984375 10.347656-5.039063 15.875-2.820313 31.582031 12.679688 61.15625 30.894532 79.121093 48.726563 3.851563 3.820312 9.128907 5.820312 14.476563 5.503906l16.804687-1.023437c4.132813-.25 7.28125-3.804688 7.03125-7.941407-.25-4.132812-3.820312-7.253906-7.941406-7.03125l-16.800781 1.019531c-1.082032.070313-2.183594-.359374-3.003906-1.175781-27.839844-27.632812-68.085938-45.566406-84.097657-51.996093-10.804687-4.339844-22.882812-2.1914068-31.519531 5.605468-8.617188 7.78125-11.980469 19.550782-8.773438 30.71875 7.382813 25.71875 18.4375 57.734375 25.6875 74.425782l10.707032 25.125c-1.875-.339844-3.769532-.644532-5.671875-.914063-8.394531-1.199219-16.5625 2.773437-20.8125 10.117187-4.207031 7.269532-3.585938 16.230469 1.578125 22.839844 15.722656 20.117188 43.613281 46.859375 104.066406 46.859375h51.800781c24.722657 0 47.675781-13.351562 59.898438-34.84375l19.160156-33.6875c1.738281-3.058593 4.875-4.882812 8.390625-4.882812s6.652344 1.824219 8.390625 4.882812l19.160156 33.6875c12.222657 21.492188 35.175781 34.84375 59.902344 34.84375h51.800781c21.375 0 40.460938-3.398437 56.730469-10.09375 3.832031-1.578125 5.660156-5.960937 4.082031-9.789062-1.574218-3.832031-5.960937-5.664063-9.789062-4.082031zm-18.617188-61.292969c0-23.746094-26.3125-42.347657-59.902344-42.347657-33.59375 0-59.90625 18.601563-59.90625 42.347657 0 23.746093 26.3125 42.347656 59.90625 42.347656 33.589844 0 59.902344-18.601563 59.902344-42.347656zm-104.808594 0c0-14.824219 20.566407-27.347657 44.90625-27.347657 24.339844 0 44.902344 12.523438 44.902344 27.347657s-20.5625 27.347656-44.902344 27.347656c-24.339843 0-44.90625-12.523437-44.90625-27.347656zm187.957032-93.195313c3.207031-11.167968-.15625-22.9375-8.777344-30.71875-8.636719-7.7968748-20.714844-9.945312-31.519531-5.605468-16.011719 6.429687-56.257813 24.363281-84.097657 51.996093-.816406.8125-1.902343 1.253907-3 1.175781l-26.332031-1.597656c-17.351562-1.050781-34.671875.636719-51.484375 5.027344l-39.230468 10.242188c-6.78125 1.769531-13.949219 1.769531-20.730469 0l-39.230469-10.242188c-8.210938-2.144531-16.65625-3.660156-25.097656-4.507812-4.117188-.410157-7.796875 2.59375-8.210938 6.714843-.414062 4.121094 2.589844 7.796875 6.714844 8.210938 7.667969.769531 15.339844 2.148437 22.804688 4.097656l39.230468 10.238281c9.257813 2.421875 19.046875 2.421875 28.308594 0l39.230469-10.238281c15.28125-3.988281 31.019531-5.523437 46.785156-4.570313l26.335937 1.601563c5.34375.320313 10.621094-1.683594 14.476563-5.503906 17.960937-17.832031 47.539063-36.046875 79.117187-48.726563 5.527344-2.21875 11.464844-1.164062 15.878907 2.820313 4.398437 3.972656 6.046875 9.746093 4.410156 15.445312-7.234375 25.179688-18.003906 56.40625-25.070313 72.6875l-16.511718 38.753907c-1.140625 2.671874-.636719 5.757812 1.292968 7.925781 1.929688 2.167969 4.9375 3.027343 7.71875 2.210937 5.847657-1.714844 12.03125-3.046875 18.382813-3.953125 3.519531-.496093 5.257813 2.003907 5.710937 2.78125.554688.960938 1.628907 3.476563-.414062 6.089844-4.59375 5.882813-9.246094 10.882813-14.214844 15.289063-3.101562 2.75-3.382812 7.492187-.632812 10.589843 1.480468 1.671875 3.542968 2.523438 5.613281 2.523438 1.769531 0 3.546875-.621094 4.972656-1.890625 5.660157-5.019532 10.917969-10.667969 16.082031-17.273438 5.164063-6.605468 5.78125-15.570312 1.578126-22.839844-4.246094-7.34375-12.410157-11.316406-20.8125-10.117187-1.902344.269531-3.792969.574219-5.667969.914063l10.679687-25.078126c7.269532-16.738281 18.324219-48.753906 25.710938-74.472656zm-426.46875 93.195313c0 23.746093 26.3125 42.347656 59.90625 42.347656 33.589844 0 59.902344-18.601563 59.902344-42.347656 0-23.746094-26.3125-42.347657-59.902344-42.347657-33.59375 0-59.90625 18.601563-59.90625 42.347657zm104.808594 0c0 14.824219-20.5625 27.347656-44.902344 27.347656s-44.90625-12.523437-44.90625-27.347656 20.566406-27.347657 44.90625-27.347657 44.902344 12.523438 44.902344 27.347657zm0 0"/></svg>