<svg height="512pt" viewBox="0 0 512 512" width="512pt" xmlns="http://www.w3.org/2000/svg"><path d="m250.902344 271.894531c1.691406.0625 3.390625.105469 5.097656.105469 74.992188 0 136-61.011719 136-136s-61.007812-136-136-136-136 61.011719-136 136c0 44.507812 21.492188 84.09375 54.644531 108.917969-30.371093 9.996093-58.871093 25.546875-83.816406 46.0625-45.730469 37.613281-77.527344 90.085937-89.53125 147.742187-3.761719 18.066406.746094 36.621094 12.363281 50.90625 11.5625 14.21875 28.703125 22.371094 47.03125 22.371094h162.308594c11.046875 0 20-8.953125 20-20s-8.953125-20-20-20h-162.308594c-8.535156 0-13.6875-4.765625-15.996094-7.605469-3.992187-4.90625-5.535156-11.289062-4.238281-17.519531 20.769531-99.761719 108.808594-172.617188 210.445313-174.980469zm-90.902344-135.894531c0-52.933594 43.066406-96 96-96s96 43.066406 96 96c0 52.175781-41.839844 94.757812-93.726562 95.972656-.746094-.085937-1.503907-.140625-2.273438-.140625-1.5625 0-3.128906.023438-4.6875.050781-50.765625-2.453124-91.3125-44.519531-91.3125-95.882812zm312 180v-13c0-11.046875-8.953125-20-20-20s-20 8.953125-20 20v13h-72v-13c0-11.046875-8.953125-20-20-20s-20 8.953125-20 20v13c-22.054688 0-40 17.945312-40 40v106c0 27.570312 22.429688 50 50 50h132c27.570312 0 50-22.429688 50-50v-106c0-22.054688-17.945312-40-40-40zm-10 156h-132c-5.515625 0-10-4.484375-10-10v-81.050781c.332031.015625.660156.050781 1 .050781h150c.335938 0 .667969-.035156 1-.050781v81.050781c0 5.515625-4.488281 10-10 10zm0 0"/></svg>